<svg xmlns="http://www.w3.org/2000/svg" xmlns:xlink="http://www.w3.org/1999/xlink" contentStyleType="text/css" data-diagram-type="CLASS" height="993px" preserveAspectRatio="none" style="width:992px;height:993px;background:#F8F8F8;" version="1.1" viewBox="0 0 992 993" width="992px" zoomAndPan="magnify"><defs/><g><rect fill="#F8F8F8" height="993" style="stroke:none;stroke-width:1;" width="992" x="0" y="0"/><!--class users--><g class="entity" data-entity="users" data-source-line="19" data-uid="ent0002" id="entity_users"><rect fill="#E8F4FD" height="226.9688" rx="2.5" ry="2.5" style="stroke:#1E88E5;stroke-width:2;" width="395.9199" x="589.32" y="122.4"/><ellipse cx="766.8171" cy="138.4" fill="#ADD1B2" rx="11" ry="11" style="stroke:#181818;stroke-width:1;"/><path d="M769.7858,144.0406 Q769.2077,144.3375 768.5671,144.4781 Q767.9264,144.6344 767.2233,144.6344 Q764.7233,144.6344 763.3952,142.9938 Q762.0827,141.3375 762.0827,138.2125 Q762.0827,135.0875 763.3952,133.4313 Q764.7233,131.775 767.2233,131.775 Q767.9264,131.775 768.5671,131.9313 Q769.2233,132.0875 769.7858,132.3844 L769.7858,135.1031 Q769.1608,134.525 768.5671,134.2594 Q767.9733,133.9781 767.3483,133.9781 Q766.0046,133.9781 765.3171,135.0563 Q764.6296,136.1188 764.6296,138.2125 Q764.6296,140.3063 765.3171,141.3844 Q766.0046,142.4469 767.3483,142.4469 Q767.9733,142.4469 768.5671,142.1813 Q769.1608,141.9 769.7858,141.3219 L769.7858,144.0406 Z " fill="#000000"/><text fill="#000000" font-family="sans-serif" font-size="12" lengthAdjust="spacing" textLength="32.4258" x="787.3171" y="142.5543">users</text><line style="stroke:#1E88E5;stroke-width:2;" x1="590.32" x2="984.2399" y1="154.4" y2="154.4"/><text fill="#000000" font-family="sans-serif" font-size="14" font-weight="bold" lengthAdjust="spacing" textLength="96.373" x="595.32" y="171.3951">Primary Key</text><line style="stroke:#1E88E5;stroke-width:1;" x1="590.32" x2="984.2399" y1="178.6969" y2="178.6969"/><ellipse cx="600.32" cy="192.3453" fill="none" rx="3" ry="3" style="stroke:#038048;stroke-width:1;"/><text fill="#000000" font-family="sans-serif" font-size="14" lengthAdjust="spacing" textLength="265.8975" x="609.32" y="195.692">id : INTEGER {PK, AUTO_INCREMENT}</text><line style="stroke:#1E88E5;stroke-width:1;" x1="590.32" x2="984.2399" y1="202.9938" y2="202.9938"/><text fill="#000000" font-family="sans-serif" font-size="14" font-weight="bold" lengthAdjust="spacing" textLength="67.4023" x="595.32" y="219.9889">Attributi</text><line style="stroke:#1E88E5;stroke-width:1;" x1="590.32" x2="984.2399" y1="227.2906" y2="227.2906"/><ellipse cx="600.32" cy="240.9391" fill="none" rx="3" ry="3" style="stroke:#038048;stroke-width:1;"/><text fill="#000000" font-family="sans-serif" font-size="14" lengthAdjust="spacing" textLength="276.3359" x="609.32" y="244.2857">username : TEXT {UNIQUE, NOT NULL}</text><ellipse cx="600.32" cy="257.2359" fill="none" rx="3" ry="3" style="stroke:#038048;stroke-width:1;"/><text fill="#000000" font-family="sans-serif" font-size="14" lengthAdjust="spacing" textLength="208.9473" x="609.32" y="260.5826">password : TEXT {NOT NULL}</text><ellipse cx="600.32" cy="273.5328" fill="none" rx="3" ry="3" style="stroke:#038048;stroke-width:1;"/><text fill="#000000" font-family="sans-serif" font-size="14" lengthAdjust="spacing" textLength="123.2178" x="609.32" y="276.8795">first_name : TEXT</text><ellipse cx="600.32" cy="289.8297" fill="none" rx="3" ry="3" style="stroke:#038048;stroke-width:1;"/><text fill="#000000" font-family="sans-serif" font-size="14" lengthAdjust="spacing" textLength="121.1123" x="609.32" y="293.1764">last_name : TEXT</text><ellipse cx="600.32" cy="306.1266" fill="none" rx="3" ry="3" style="stroke:#038048;stroke-width:1;"/><text fill="#000000" font-family="sans-serif" font-size="14" lengthAdjust="spacing" textLength="87.7666" x="609.32" y="309.4732">email : TEXT</text><ellipse cx="600.32" cy="322.4234" fill="#84BE84" rx="3" ry="3" style="stroke:#038048;stroke-width:1;"/><text fill="#000000" font-family="sans-serif" font-size="14" lengthAdjust="spacing" textLength="326.7578" x="609.32" y="325.7701">is_admin : INTEGER {DEFAULT 0, CHECK(0,1)}</text><ellipse cx="600.32" cy="338.7203" fill="none" rx="3" ry="3" style="stroke:#038048;stroke-width:1;"/><text fill="#000000" font-family="sans-serif" font-size="14" lengthAdjust="spacing" textLength="369.9199" x="609.32" y="342.067">created_at : TEXT {DEFAULT CURRENT_TIMESTAMP}</text></g><!--class game_sessions--><g class="entity" data-entity="game_sessions" data-source-line="36" data-uid="ent0003" id="entity_game_sessions"><rect fill="#E8F4FD" height="226.6719" rx="2.5" ry="2.5" style="stroke:#1E88E5;stroke-width:2;" width="395.9199" x="331.32" y="441.37"/><ellipse cx="479.6725" cy="457.37" fill="#ADD1B2" rx="11" ry="11" style="stroke:#181818;stroke-width:1;"/><path d="M482.6413,463.0106 Q482.0632,463.3075 481.4225,463.4481 Q480.7819,463.6044 480.0788,463.6044 Q477.5788,463.6044 476.2507,461.9638 Q474.9382,460.3075 474.9382,457.1825 Q474.9382,454.0575 476.2507,452.4013 Q477.5788,450.745 480.0788,450.745 Q480.7819,450.745 481.4225,450.9013 Q482.0788,451.0575 482.6413,451.3544 L482.6413,454.0731 Q482.0163,453.495 481.4225,453.2294 Q480.8288,452.9481 480.2038,452.9481 Q478.86,452.9481 478.1725,454.0263 Q477.485,455.0888 477.485,457.1825 Q477.485,459.2763 478.1725,460.3544 Q478.86,461.4169 480.2038,461.4169 Q480.8288,461.4169 481.4225,461.1513 Q482.0163,460.87 482.6413,460.2919 L482.6413,463.0106 Z " fill="#000000"/><text fill="#000000" font-family="sans-serif" font-size="12" lengthAdjust="spacing" textLength="90.7148" x="500.1725" y="461.5243">game_sessions</text><line style="stroke:#1E88E5;stroke-width:2;" x1="332.32" x2="726.2399" y1="473.37" y2="473.37"/><text fill="#000000" font-family="sans-serif" font-size="14" font-weight="bold" lengthAdjust="spacing" textLength="96.373" x="337.32" y="490.3651">Primary Key</text><line style="stroke:#1E88E5;stroke-width:1;" x1="332.32" x2="726.2399" y1="497.6669" y2="497.6669"/><ellipse cx="342.32" cy="511.3153" fill="none" rx="3" ry="3" style="stroke:#038048;stroke-width:1;"/><text fill="#000000" font-family="sans-serif" font-size="14" lengthAdjust="spacing" textLength="265.8975" x="351.32" y="514.662">id : INTEGER {PK, AUTO_INCREMENT}</text><line style="stroke:#1E88E5;stroke-width:1;" x1="332.32" x2="726.2399" y1="521.9638" y2="521.9638"/><text fill="#000000" font-family="sans-serif" font-size="14" font-weight="bold" lengthAdjust="spacing" textLength="103.0449" x="337.32" y="538.9589">Foreign Keys</text><line style="stroke:#1E88E5;stroke-width:1;" x1="332.32" x2="726.2399" y1="546.2606" y2="546.2606"/><ellipse cx="342.32" cy="559.9091" fill="none" rx="3" ry="3" style="stroke:#038048;stroke-width:1;"/><text fill="#000000" font-family="sans-serif" font-size="14" lengthAdjust="spacing" textLength="244.5625" x="351.32" y="563.2557">user_id : INTEGER {FK, NOT NULL}</text><line style="stroke:#1E88E5;stroke-width:1;" x1="332.32" x2="726.2399" y1="570.5575" y2="570.5575"/><text fill="#000000" font-family="sans-serif" font-size="14" font-weight="bold" lengthAdjust="spacing" textLength="67.4023" x="337.32" y="587.5526">Attributi</text><line style="stroke:#1E88E5;stroke-width:1;" x1="332.32" x2="726.2399" y1="594.8544" y2="594.8544"/><ellipse cx="342.32" cy="608.5028" fill="none" rx="3" ry="3" style="stroke:#038048;stroke-width:1;"/><text fill="#000000" font-family="sans-serif" font-size="14" lengthAdjust="spacing" textLength="180.5713" x="351.32" y="611.8495">score : REAL {NOT NULL}</text><ellipse cx="342.32" cy="624.7997" fill="none" rx="3" ry="3" style="stroke:#038048;stroke-width:1;"/><text fill="#000000" font-family="sans-serif" font-size="14" lengthAdjust="spacing" textLength="202.9932" x="351.32" y="628.1464">difficulty : TEXT {NOT NULL}</text><ellipse cx="342.32" cy="641.0966" fill="none" rx="3" ry="3" style="stroke:#038048;stroke-width:1;"/><text fill="#000000" font-family="sans-serif" font-size="14" lengthAdjust="spacing" textLength="207.416" x="351.32" y="644.4432">language : TEXT {NOT NULL}</text><ellipse cx="342.32" cy="657.3934" fill="none" rx="3" ry="3" style="stroke:#038048;stroke-width:1;"/><text fill="#000000" font-family="sans-serif" font-size="14" lengthAdjust="spacing" textLength="369.9199" x="351.32" y="660.7401">created_at : TEXT {DEFAULT CURRENT_TIMESTAMP}</text></g><!--class answers--><g class="entity" data-entity="answers" data-source-line="54" data-uid="ent0004" id="entity_answers"><rect fill="#E8F4FD" height="226.6719" rx="2.5" ry="2.5" style="stroke:#1E88E5;stroke-width:2;" width="352.0674" x="353.25" y="760.04"/><ellipse cx="500.2368" cy="776.04" fill="#ADD1B2" rx="11" ry="11" style="stroke:#181818;stroke-width:1;"/><path d="M503.2056,781.6806 Q502.6274,781.9775 501.9868,782.1181 Q501.3462,782.2744 500.6431,782.2744 Q498.1431,782.2744 496.8149,780.6338 Q495.5024,778.9775 495.5024,775.8525 Q495.5024,772.7275 496.8149,771.0713 Q498.1431,769.415 500.6431,769.415 Q501.3462,769.415 501.9868,769.5713 Q502.6431,769.7275 503.2056,770.0244 L503.2056,772.7431 Q502.5806,772.165 501.9868,771.8994 Q501.3931,771.6181 500.7681,771.6181 Q499.4243,771.6181 498.7368,772.6963 Q498.0493,773.7588 498.0493,775.8525 Q498.0493,777.9463 498.7368,779.0244 Q499.4243,780.0869 500.7681,780.0869 Q501.3931,780.0869 501.9868,779.8213 Q502.5806,779.54 503.2056,778.9619 L503.2056,781.6806 Z " fill="#000000"/><text fill="#000000" font-family="sans-serif" font-size="12" lengthAdjust="spacing" textLength="49.5938" x="520.7368" y="780.1943">answers</text><line style="stroke:#1E88E5;stroke-width:2;" x1="354.25" x2="704.3174" y1="792.04" y2="792.04"/><text fill="#000000" font-family="sans-serif" font-size="14" font-weight="bold" lengthAdjust="spacing" textLength="96.373" x="359.25" y="809.0351">Primary Key</text><line style="stroke:#1E88E5;stroke-width:1;" x1="354.25" x2="704.3174" y1="816.3369" y2="816.3369"/><ellipse cx="364.25" cy="829.9853" fill="none" rx="3" ry="3" style="stroke:#038048;stroke-width:1;"/><text fill="#000000" font-family="sans-serif" font-size="14" lengthAdjust="spacing" textLength="265.8975" x="373.25" y="833.332">id : INTEGER {PK, AUTO_INCREMENT}</text><line style="stroke:#1E88E5;stroke-width:1;" x1="354.25" x2="704.3174" y1="840.6338" y2="840.6338"/><text fill="#000000" font-family="sans-serif" font-size="14" font-weight="bold" lengthAdjust="spacing" textLength="103.0449" x="359.25" y="857.6289">Foreign Keys</text><line style="stroke:#1E88E5;stroke-width:1;" x1="354.25" x2="704.3174" y1="864.9306" y2="864.9306"/><ellipse cx="364.25" cy="878.5791" fill="none" rx="3" ry="3" style="stroke:#038048;stroke-width:1;"/><text fill="#000000" font-family="sans-serif" font-size="14" lengthAdjust="spacing" textLength="265.8496" x="373.25" y="881.9257">session_id : INTEGER {FK, NOT NULL}</text><line style="stroke:#1E88E5;stroke-width:1;" x1="354.25" x2="704.3174" y1="889.2275" y2="889.2275"/><text fill="#000000" font-family="sans-serif" font-size="14" font-weight="bold" lengthAdjust="spacing" textLength="67.4023" x="359.25" y="906.2226">Attributi</text><line style="stroke:#1E88E5;stroke-width:1;" x1="354.25" x2="704.3174" y1="913.5244" y2="913.5244"/><ellipse cx="364.25" cy="927.1728" fill="none" rx="3" ry="3" style="stroke:#038048;stroke-width:1;"/><text fill="#000000" font-family="sans-serif" font-size="14" lengthAdjust="spacing" textLength="237.5967" x="373.25" y="930.5195">question_text : TEXT {NOT NULL}</text><ellipse cx="364.25" cy="943.4697" fill="none" rx="3" ry="3" style="stroke:#038048;stroke-width:1;"/><text fill="#000000" font-family="sans-serif" font-size="14" lengthAdjust="spacing" textLength="249.7168" x="373.25" y="946.8164">chosen_answer : TEXT {NOT NULL}</text><ellipse cx="364.25" cy="959.7666" fill="none" rx="3" ry="3" style="stroke:#038048;stroke-width:1;"/><text fill="#000000" font-family="sans-serif" font-size="14" lengthAdjust="spacing" textLength="249.375" x="373.25" y="963.1132">correct_answer : TEXT {NOT NULL}</text><ellipse cx="364.25" cy="976.0634" fill="#84BE84" rx="3" ry="3" style="stroke:#038048;stroke-width:1;"/><text fill="#000000" font-family="sans-serif" font-size="14" lengthAdjust="spacing" textLength="326.0674" x="373.25" y="979.4101">is_correct : INTEGER {NOT NULL, CHECK(0,1)}</text></g><g class="entity" data-entity="GMN7" data-source-line="76" data-uid="ent0008" id="entity_GMN7"><path d="M671.21,6 L671.21,61.3984 A0,0 0 0 0 671.21,61.3984 L783.28,61.3984 L787.28,122.04 L791.28,61.3984 L903.3521,61.3984 A0,0 0 0 0 903.3521,61.3984 L903.3521,16 L893.3521,6 L671.21,6 A0,0 0 0 0 671.21,6" fill="#FFF3E0" style="stroke:#FF9800;stroke-width:0.5;"/><path d="M893.3521,6 L893.3521,16 L903.3521,16 L893.3521,6" fill="#FFF3E0" style="stroke:#FF9800;stroke-width:0.5;"/><text fill="#000000" font-family="sans-serif" font-size="13" font-weight="bold" lengthAdjust="spacing" textLength="105.0918" x="677.21" y="23.0669">ENTIT&#192; USERS</text><text fill="#000000" font-family="sans-serif" font-size="13" lengthAdjust="spacing" textLength="195.6538" x="677.21" y="38.1997">Memorizza gli utenti registrati</text><text fill="#000000" font-family="sans-serif" font-size="13" lengthAdjust="spacing" textLength="211.1421" x="677.21" y="53.3325">con supporto per amministratori</text></g><g class="entity" data-entity="GMN10" data-source-line="78" data-uid="ent0011" id="entity_GMN10"><path d="M292.18,208.18 L292.18,263.5784 A0,0 0 0 0 292.18,263.5784 L428.32,263.5784 L491.64,441.2 L436.32,263.5784 L554.3782,263.5784 A0,0 0 0 0 554.3782,263.5784 L554.3782,218.18 L544.3782,208.18 L292.18,208.18 A0,0 0 0 0 292.18,208.18" fill="#FFF3E0" style="stroke:#FF9800;stroke-width:0.5;"/><path d="M544.3782,208.18 L544.3782,218.18 L554.3782,218.18 L544.3782,208.18" fill="#FFF3E0" style="stroke:#FF9800;stroke-width:0.5;"/><text fill="#000000" font-family="sans-serif" font-size="13" font-weight="bold" lengthAdjust="spacing" textLength="179.0674" x="298.18" y="225.2469">ENTIT&#192; GAME_SESSIONS</text><text fill="#000000" font-family="sans-serif" font-size="13" lengthAdjust="spacing" textLength="173.7798" x="298.18" y="240.3797">Traccia le sessioni di gioco</text><text fill="#000000" font-family="sans-serif" font-size="13" lengthAdjust="spacing" textLength="241.1982" x="298.18" y="255.5125">con punteggi decimali per precisione</text></g><g class="entity" data-entity="GMN13" data-source-line="80" data-uid="ent0014" id="entity_GMN13"><path d="M74.77,527 L74.77,582.3984 L281.7881,582.3984 L281.7881,537 L271.7881,527 L74.77,527" fill="#FFF3E0" style="stroke:#FF9800;stroke-width:0.5;"/><path d="M271.7881,527 L271.7881,537 L281.7881,537 L271.7881,527" fill="#FFF3E0" style="stroke:#FF9800;stroke-width:1;"/><text fill="#000000" font-family="sans-serif" font-size="13" font-weight="bold" lengthAdjust="spacing" textLength="129.8159" x="80.77" y="544.0669">ENTIT&#192; ANSWERS</text><text fill="#000000" font-family="sans-serif" font-size="13" lengthAdjust="spacing" textLength="175.5825" x="80.77" y="559.1997">Registra ogni risposta data</text><text fill="#000000" font-family="sans-serif" font-size="13" lengthAdjust="spacing" textLength="186.0181" x="80.77" y="574.3325">durante le partite per analisi</text></g><g class="entity" data-entity="GMN16" data-source-line="83" data-uid="ent0017" id="entity_GMN16"><path d="M6,815.41 L6,931.3397 L318.5605,931.3397 L318.5605,825.41 L308.5605,815.41 L6,815.41" fill="#FFF3E0" style="stroke:#FF9800;stroke-width:0.5;"/><path d="M308.5605,815.41 L308.5605,825.41 L318.5605,825.41 L308.5605,815.41" fill="#FFF3E0" style="stroke:#FF9800;stroke-width:1;"/><text fill="#000000" font-family="sans-serif" font-size="13" font-weight="bold" lengthAdjust="spacing" textLength="68.4468" x="12" y="832.4769">LEGENDA</text><text fill="#000000" font-family="sans-serif" font-size="13" lengthAdjust="spacing" textLength="114.334" x="12" y="847.6097">PK = Primary Key</text><text fill="#000000" font-family="sans-serif" font-size="13" lengthAdjust="spacing" textLength="112.3853" x="12" y="862.7425">FK = Foreign Key</text><text fill="#000000" font-family="sans-serif" font-size="13" lengthAdjust="spacing" textLength="181.6445" x="12" y="877.8753">UNIQUE = Vincolo di unicit&#224;</text><text fill="#000000" font-family="sans-serif" font-size="13" lengthAdjust="spacing" textLength="212.8179" x="12" y="893.0081">NOT NULL = Campo obbligatorio</text><text fill="#000000" font-family="sans-serif" font-size="13" lengthAdjust="spacing" textLength="188.2778" x="12" y="908.141">CHECK = Vincolo di controllo</text><text fill="#000000" font-family="sans-serif" font-size="13" lengthAdjust="spacing" textLength="291.5605" x="12" y="923.2738">AUTO_INCREMENT = Incremento automatico</text></g><!--link users to game_sessions--><g class="link" data-entity-1="users" data-entity-2="game_sessions" data-source-line="72" data-uid="lnk5" id="link_users_game_sessions"><path codeLine="72" d="M690.5389,355.6737 C666.3489,385.3837 656.665,397.2716 632.475,426.9816" fill="none" id="users-game_sessions" style="stroke:#181818;stroke-width:1;"/><line style="stroke:#181818;stroke-width:1;" x1="689.9626" x2="696.1663" y1="350.0463" y2="355.0974"/><line style="stroke:#181818;stroke-width:1;" x1="688.0684" x2="694.2721" y1="352.3727" y2="357.4238"/><line style="stroke:#181818;stroke-width:1;" x1="690.5389" x2="695.59" y1="355.6737" y2="349.47"/><line style="stroke:#181818;stroke-width:1;" x1="626.1611" x2="625.7628" y1="434.7363" y2="444.7283"/><line style="stroke:#181818;stroke-width:1;" x1="626.1611" x2="616.4572" y1="434.7363" y2="437.1517"/><line style="stroke:#181818;stroke-width:1;" x1="626.1611" x2="621.11" y1="434.7363" y2="440.94"/><ellipse cx="629.9494" cy="430.0835" fill="none" rx="4" ry="4" style="stroke:#181818;stroke-width:1;"/><text fill="#000000" font-family="sans-serif" font-size="13" lengthAdjust="spacing" textLength="22.3755" x="717.9975" y="392.4369">1:N</text><text fill="#000000" font-family="sans-serif" font-size="13" lengthAdjust="spacing" textLength="125.8105" x="666.28" y="407.5697">user plays sessions</text></g><!--link game_sessions to answers--><g class="link" data-entity-1="game_sessions" data-entity-2="answers" data-source-line="73" data-uid="lnk6" id="link_game_sessions_answers"><path codeLine="73" d="M529.28,676.24 C529.28,705.93 529.28,711.97 529.28,741.66" fill="none" id="game_sessions-answers" style="stroke:#181818;stroke-width:1;"/><line style="stroke:#181818;stroke-width:1;" x1="525.28" x2="533.28" y1="672.24" y2="672.24"/><line style="stroke:#181818;stroke-width:1;" x1="525.28" x2="533.28" y1="675.24" y2="675.24"/><line style="stroke:#181818;stroke-width:1;" x1="529.28" x2="529.28" y1="676.24" y2="668.24"/><line style="stroke:#181818;stroke-width:1;" x1="529.28" x2="535.28" y1="751.66" y2="759.66"/><line style="stroke:#181818;stroke-width:1;" x1="529.28" x2="523.28" y1="751.66" y2="759.66"/><line style="stroke:#181818;stroke-width:1;" x1="529.28" x2="529.28" y1="751.66" y2="759.66"/><ellipse cx="529.28" cy="745.66" fill="none" rx="4" ry="4" style="stroke:#181818;stroke-width:1;"/><text fill="#000000" font-family="sans-serif" font-size="13" lengthAdjust="spacing" textLength="22.3755" x="601.6626" y="711.1069">1:N</text><text fill="#000000" font-family="sans-serif" font-size="13" lengthAdjust="spacing" textLength="165.1406" x="530.28" y="726.2397">session contains answers</text></g><!--link GMN13 to answers--><g class="link" data-entity-1="GMN13" data-entity-2="answers" data-source-line="80" data-uid="lnk15" id="link_GMN13_answers"><path d="M208.21,582.7 C251.39,621.66 333.75,695.97 404.24,759.56" fill="none" id="GMN13-answers" style="stroke:#181818;stroke-width:1;stroke-dasharray:7.0,7.0;"/></g><!--link GMN13 to GMN16--><g class="link" data-entity-1="GMN13" data-entity-2="GMN16" data-source-line="83" data-uid="lnk18" id="link_GMN13_GMN16"><path d="M176.92,582.7 C174.33,633.93 168.65,746.24 165.18,815" fill="none" id="GMN13-GMN16" style="stroke:#181818;stroke-width:1;stroke-dasharray:7.0,7.0;"/></g><!--SRC=[lLNRRjj647tdLqpSXxIg3SXf2wW6yi3AIqUGHAiYrQQ00695hfY1oLrcTzdKTWpqK_8l-R7CafHDAH7oq8lu873sx9oPCnS-oyGMfG0MnfFu3qWBRepth3CksSoF9zTXz6goW0nvgMJcUSzXhEGMyrhpErG4oqG1LfJSCpSeAwvv2HkUtkHQrJ8Rgq9f-2OOkQU7Q9ZWtWFw_NA8PgFWn-2oFLCw4xgpdxFHYFtKiyTlCBsHWZozQAo1aZR2Em7dBxm7hqSdbHN7s88W-84DFsSBWfz7mw7pynoOj6W_Ve2L4TfudLgrU-cy3WOBZINNjp0LjuD1OpixQ_w-1ypW0YPXpAxO4kuNqrFmL_5rCWd7IpOdPmzz-63WMwjnKriyzEC89Iy5UOlPwnZkL-7arnKxXV0wXd0rcprqm8h4VKUvF08F0LlKnYOzNvsTgl8bCrKNYtqJceHd9Sf-PfSiy5Up68QdC7x5njDlXwVdt-qeKosu5Ld2xMDKE_nujLoI34aycRCezkUBXttLhrn04PMP-krH_PoCYUcC_q4L0gK5vj9vCbygHBBlBvWUbk7hzJGfSP2J9VDddzSem-qMqxgmjqVBM72PrpmNHm7_G7HVcdUzPkVjw_yiT5VVVq7hjxKmrhcouYzxNAytoWYPjCaUHocjHMg_1gCHwP3zu7Ue_Hbff5-AejcfwBMhvVtxipDrVz3f5t1oVX6kfOD0LV1RirF9d7ZxqEx-hdIxczqvfI4jHy9rW1CNG-WsfJ1LWIct-AVmcjLfLGLgsssy2zAvwOgFVyCgOijeC5ZBkIYLnhix3dc1K5j1RGHQv6Yi9aThIMnWwgfIsYgeA7PUqlfeZ-ccjqTqcF8JuPK_Pqd4eiXzc1nnh7cQ8eT2x7H06Xt8KQMgPQrgQKMUarcarBGKdgElg33eu6AV-acj9r8_Z7xlybnsAO7AYKYZgPIn739k-Lfcz54aBXSBVNTeZaIRgIHIWqxUcSY5p7ZBk57Mgh9Xcb5pX9U-OrXCuINqncij0sVfZSbQjekVhByXfLWebt4jCNMJkvQx5gFpCIyh1MgpAJ1lT2PDchxRl-jQGQkYeDFzMINOHD8MAQcU2dXDyL8rK_K9]--></g></svg>